<svg width="180" height="40" viewBox="0 0 180 40" fill="none" xmlns="http://www.w3.org/2000/svg">
<path d="M36.4609 7.35547L31.8203 21.5H28.082L34.4219 4.4375H36.8008L36.4609 7.35547ZM40.3164 21.5L35.6641 7.35547L35.2891 4.4375H37.6914L44.0664 21.5H40.3164ZM40.1055 15.1484V17.9023H31.0938V15.1484H40.1055ZM52.293 15.418H47.9453V12.6758H52.293C52.9648 12.6758 53.5117 12.5664 53.9336 12.3477C54.3555 12.1211 54.6641 11.8086 54.8594 11.4102C55.0547 11.0117 55.1523 10.5625 55.1523 10.0625C55.1523 9.55469 55.0547 9.08203 54.8594 8.64453C54.6641 8.20703 54.3555 7.85547 53.9336 7.58984C53.5117 7.32422 52.9648 7.19141 52.293 7.19141H49.1641V21.5H45.6484V4.4375H52.293C53.6289 4.4375 54.7734 4.67969 55.7266 5.16406C56.6875 5.64063 57.4219 6.30078 57.9297 7.14453C58.4375 7.98828 58.6914 8.95312 58.6914 10.0391C58.6914 11.1406 58.4375 12.0938 57.9297 12.8984C57.4219 13.7031 56.6875 14.3242 55.7266 14.7617C54.7734 15.1992 53.6289 15.418 52.293 15.418ZM71.0078 15.8398H74.5117C74.4414 16.9883 74.125 18.0078 73.5625 18.8984C73.0078 19.7891 72.2305 20.4844 71.2305 20.9844C70.2383 21.4844 69.043 21.7344 67.6445 21.7344C66.5508 21.7344 65.5703 21.5469 64.7031 21.1719C63.8359 20.7891 63.0938 20.2422 62.4766 19.5312C61.8672 18.8203 61.4023 17.9609 61.082 16.9531C60.7617 15.9453 60.6016 14.8164 60.6016 13.5664V12.3828C60.6016 11.1328 60.7656 10.0039 61.0938 8.99609C61.4297 7.98047 61.9062 7.11719 62.5234 6.40625C63.1484 5.69531 63.8945 5.14844 64.7617 4.76562C65.6289 4.38281 66.5977 4.19141 67.668 4.19141C69.0898 4.19141 70.2891 4.44922 71.2656 4.96484C72.25 5.48047 73.0117 6.19141 73.5508 7.09766C74.0977 8.00391 74.4258 9.03516 74.5352 10.1914H71.0195C70.9805 9.50391 70.8438 8.92188 70.6094 8.44531C70.375 7.96094 70.0195 7.59766 69.543 7.35547C69.0742 7.10547 68.4492 6.98047 67.668 6.98047C67.082 6.98047 66.5703 7.08984 66.1328 7.30859C65.6953 7.52734 65.3281 7.85938 65.0312 8.30469C64.7344 8.75 64.5117 9.3125 64.3633 9.99219C64.2227 10.6641 64.1523 11.4531 64.1523 12.3594V13.5664C64.1523 14.4492 64.2188 15.2266 64.3516 15.8984C64.4844 16.5625 64.6875 17.125 64.9609 17.5859C65.2422 18.0391 65.6016 18.3828 66.0391 18.6172C66.4844 18.8438 67.0195 18.957 67.6445 18.957C68.3789 18.957 68.9844 18.8398 69.4609 18.6055C69.9375 18.3711 70.3008 18.0234 70.5508 17.5625C70.8086 17.1016 70.9609 16.5273 71.0078 15.8398ZM94.2461 18.7578V21.5H85.1641V18.7578H94.2461ZM86.3125 4.4375V21.5H82.7969V4.4375H86.3125ZM93.0625 11.3867V14.0586H85.1641V11.3867H93.0625ZM94.2344 4.4375V7.19141H85.1641V4.4375H94.2344ZM102.742 12.8516V15.5H96.1211V12.8516H102.742ZM115.656 15.8398H119.16C119.09 16.9883 118.773 18.0078 118.211 18.8984C117.656 19.7891 116.879 20.4844 115.879 20.9844C114.887 21.4844 113.691 21.7344 112.293 21.7344C111.199 21.7344 110.219 21.5469 109.352 21.1719C108.484 20.7891 107.742 20.2422 107.125 19.5312C106.516 18.8203 106.051 17.9609 105.73 16.9531C105.41 15.9453 105.25 14.8164 105.25 13.5664V12.3828C105.25 11.1328 105.414 10.0039 105.742 8.99609C106.078 7.98047 106.555 7.11719 107.172 6.40625C107.797 5.69531 108.543 5.14844 109.41 4.76562C110.277 4.38281 111.246 4.19141 112.316 4.19141C113.738 4.19141 114.938 4.44922 115.914 4.96484C116.898 5.48047 117.66 6.19141 118.199 7.09766C118.746 8.00391 119.074 9.03516 119.184 10.1914H115.668C115.629 9.50391 115.492 8.92188 115.258 8.44531C115.023 7.96094 114.668 7.59766 114.191 7.35547C113.723 7.10547 113.098 6.98047 112.316 6.98047C111.73 6.98047 111.219 7.08984 110.781 7.30859C110.344 7.52734 109.977 7.85938 109.68 8.30469C109.383 8.75 109.16 9.3125 109.012 9.99219C108.871 10.6641 108.801 11.4531 108.801 12.3594V13.5664C108.801 14.4492 108.867 15.2266 109 15.8984C109.133 16.5625 109.336 17.125 109.609 17.5859C109.891 18.0391 110.25 18.3828 110.688 18.6172C111.133 18.8438 111.668 18.957 112.293 18.957C113.027 18.957 113.633 18.8398 114.109 18.6055C114.586 18.3711 114.949 18.0234 115.199 17.5625C115.457 17.1016 115.609 16.5273 115.656 15.8398ZM132.438 18.7578V21.5H123.848V18.7578H132.438ZM124.984 4.4375V21.5H121.469V4.4375H124.984ZM138.191 4.4375V21.5H134.688V4.4375H138.191ZM155.371 4.4375V21.5H151.855L145 10.0625V21.5H141.484V4.4375H145L151.867 15.8867V4.4375H155.371ZM162.168 4.4375V21.5H158.664V4.4375H162.168ZM175.352 15.8398H178.855C178.785 16.9883 178.469 18.0078 177.906 18.8984C177.352 19.7891 176.574 20.4844 175.574 20.9844C174.582 21.4844 173.387 21.7344 171.988 21.7344C170.895 21.7344 169.914 21.5469 169.047 21.1719C168.18 20.7891 167.438 20.2422 166.82 19.5312C166.211 18.8203 165.746 17.9609 165.426 16.9531C165.105 15.9453 164.945 14.8164 164.945 13.5664V12.3828C164.945 11.1328 165.109 10.0039 165.438 8.99609C165.773 7.98047 166.25 7.11719 166.867 6.40625C167.492 5.69531 168.238 5.14844 169.105 4.76562C169.973 4.38281 170.941 4.19141 172.012 4.19141C173.434 4.19141 174.633 4.44922 175.609 4.96484C176.594 5.48047 177.355 6.19141 177.895 7.09766C178.441 8.00391 178.77 9.03516 178.879 10.1914H175.363C175.324 9.50391 175.188 8.92188 174.953 8.44531C174.719 7.96094 174.363 7.59766 173.887 7.35547C173.418 7.10547 172.793 6.98047 172.012 6.98047C171.426 6.98047 170.914 7.08984 170.477 7.30859C170.039 7.52734 169.672 7.85938 169.375 8.30469C169.078 8.75 168.855 9.3125 168.707 9.99219C168.566 10.6641 168.496 11.4531 168.496 12.3594V13.5664C168.496 14.4492 168.562 15.2266 168.695 15.8984C168.828 16.5625 169.031 17.125 169.305 17.5859C169.586 18.0391 169.945 18.3828 170.383 18.6172C170.828 18.8438 171.363 18.957 171.988 18.957C172.723 18.957 173.328 18.8398 173.805 18.6055C174.281 18.3711 174.645 18.0234 174.895 17.5625C175.152 17.1016 175.305 16.5273 175.352 15.8398Z" fill="#092F60"/>
<path d="M148.137 32.1543H145.857V31.2344H148.137C148.578 31.2344 148.936 31.1641 149.209 31.0234C149.482 30.8828 149.682 30.6875 149.807 30.4375C149.936 30.1875 150 29.9023 150 29.582C150 29.2891 149.936 29.0137 149.807 28.7559C149.682 28.498 149.482 28.291 149.209 28.1348C148.936 27.9746 148.578 27.8945 148.137 27.8945H146.121V35.5H144.99V26.9688H148.137C148.781 26.9688 149.326 27.0801 149.771 27.3027C150.217 27.5254 150.555 27.834 150.785 28.2285C151.016 28.6191 151.131 29.0664 151.131 29.5703C151.131 30.1172 151.016 30.584 150.785 30.9707C150.555 31.3574 150.217 31.6523 149.771 31.8555C149.326 32.0547 148.781 32.1543 148.137 32.1543ZM152.561 26.9688H155.385C156.025 26.9688 156.566 27.0664 157.008 27.2617C157.453 27.457 157.791 27.7461 158.021 28.1289C158.256 28.5078 158.373 28.9746 158.373 29.5293C158.373 29.9199 158.293 30.2773 158.133 30.6016C157.977 30.9219 157.75 31.1953 157.453 31.4219C157.16 31.6445 156.809 31.8105 156.398 31.9199L156.082 32.043H153.428L153.416 31.123H155.42C155.826 31.123 156.164 31.0527 156.434 30.9121C156.703 30.7676 156.906 30.5742 157.043 30.332C157.18 30.0898 157.248 29.8223 157.248 29.5293C157.248 29.2012 157.184 28.9141 157.055 28.668C156.926 28.4219 156.723 28.2324 156.445 28.0996C156.172 27.9629 155.818 27.8945 155.385 27.8945H153.691V35.5H152.561V26.9688ZM157.547 35.5L155.473 31.6328L156.65 31.627L158.754 35.4297V35.5H157.547ZM161.168 26.9688V35.5H160.037V26.9688H161.168ZM163.582 26.9688H164.678L167.473 33.9238L170.262 26.9688H171.363L167.895 35.5H167.039L163.582 26.9688ZM163.225 26.9688H164.191L164.35 32.1719V35.5H163.225V26.9688ZM170.748 26.9688H171.715V35.5H170.59V32.1719L170.748 26.9688ZM178.248 33.3438C178.248 33.1445 178.217 32.9688 178.154 32.8164C178.096 32.6602 177.99 32.5195 177.838 32.3945C177.689 32.2695 177.482 32.1504 177.217 32.0371C176.955 31.9238 176.623 31.8086 176.221 31.6914C175.799 31.5664 175.418 31.4277 175.078 31.2754C174.738 31.1191 174.447 30.9414 174.205 30.7422C173.963 30.543 173.777 30.3145 173.648 30.0566C173.52 29.7988 173.455 29.5039 173.455 29.1719C173.455 28.8398 173.523 28.5332 173.66 28.252C173.797 27.9707 173.992 27.7266 174.246 27.5195C174.504 27.3086 174.811 27.1445 175.166 27.0273C175.521 26.9102 175.918 26.8516 176.355 26.8516C176.996 26.8516 177.539 26.9746 177.984 27.2207C178.434 27.4629 178.775 27.7812 179.01 28.1758C179.244 28.5664 179.361 28.9844 179.361 29.4297H178.236C178.236 29.1094 178.168 28.8262 178.031 28.5801C177.895 28.3301 177.688 28.1348 177.41 27.9941C177.133 27.8496 176.781 27.7773 176.355 27.7773C175.953 27.7773 175.621 27.8379 175.359 27.959C175.098 28.0801 174.902 28.2441 174.773 28.4512C174.648 28.6582 174.586 28.8945 174.586 29.1602C174.586 29.3398 174.623 29.5039 174.697 29.6523C174.775 29.7969 174.895 29.9316 175.055 30.0566C175.219 30.1816 175.426 30.2969 175.676 30.4023C175.93 30.5078 176.232 30.6094 176.584 30.707C177.068 30.8438 177.486 30.9961 177.838 31.1641C178.189 31.332 178.479 31.5215 178.705 31.7324C178.936 31.9395 179.105 32.1758 179.215 32.4414C179.328 32.7031 179.385 33 179.385 33.332C179.385 33.6797 179.314 33.9941 179.174 34.2754C179.033 34.5566 178.832 34.7969 178.57 34.9961C178.309 35.1953 177.994 35.3496 177.627 35.459C177.264 35.5645 176.857 35.6172 176.408 35.6172C176.014 35.6172 175.625 35.5625 175.242 35.4531C174.863 35.3438 174.518 35.1797 174.205 34.9609C173.896 34.7422 173.648 34.4727 173.461 34.1523C173.277 33.8281 173.186 33.4531 173.186 33.0273H174.311C174.311 33.3203 174.367 33.5723 174.48 33.7832C174.594 33.9902 174.748 34.1621 174.943 34.2988C175.143 34.4355 175.367 34.5371 175.617 34.6035C175.871 34.666 176.135 34.6973 176.408 34.6973C176.803 34.6973 177.137 34.6426 177.41 34.5332C177.684 34.4238 177.891 34.2676 178.031 34.0645C178.176 33.8613 178.248 33.6211 178.248 33.3438Z" fill="#AB994D"/>
</svg>
