<svg width="295" height="121" viewBox="0 0 295 121" fill="none" xmlns="http://www.w3.org/2000/svg">
<path d="M6.78835 27H0.856534L9.89489 0.818181H17.0284L26.054 27H20.1222L13.5639 6.80114H13.3594L6.78835 27ZM6.41761 16.7088H20.429V21.0298H6.41761V16.7088ZM29.2053 27V0.818181H39.5348C41.5206 0.818181 43.2124 1.19744 44.6101 1.95597C46.0078 2.70597 47.0732 3.75 47.8061 5.08807C48.5476 6.41761 48.9183 7.9517 48.9183 9.69034C48.9183 11.429 48.5433 12.9631 47.7933 14.2926C47.0433 15.6222 45.9567 16.6577 44.5334 17.3991C43.1186 18.1406 41.4055 18.5114 39.3942 18.5114H32.8104V14.0753H38.4993C39.5646 14.0753 40.4425 13.892 41.1328 13.5256C41.8317 13.1506 42.3516 12.6349 42.6925 11.9787C43.0419 11.3139 43.2166 10.5511 43.2166 9.69034C43.2166 8.82102 43.0419 8.0625 42.6925 7.41477C42.3516 6.75852 41.8317 6.25142 41.1328 5.89347C40.4339 5.52699 39.5476 5.34375 38.4737 5.34375H34.7408V27H29.2053ZM75.6147 9.98438H70.0153C69.913 9.25994 69.7042 8.61648 69.3889 8.05398C69.0735 7.48295 68.6687 6.99716 68.1744 6.59659C67.68 6.19602 67.109 5.8892 66.4613 5.67614C65.8221 5.46307 65.1275 5.35653 64.3775 5.35653C63.0224 5.35653 61.842 5.69318 60.8363 6.36648C59.8306 7.03125 59.0508 8.00284 58.4968 9.28125C57.9428 10.5511 57.6658 12.0937 57.6658 13.9091C57.6658 15.7756 57.9428 17.3437 58.4968 18.6136C59.0593 19.8835 59.8434 20.8423 60.8491 21.4901C61.8548 22.1378 63.0181 22.4616 64.3391 22.4616C65.0806 22.4616 65.7667 22.3636 66.3974 22.1676C67.0366 21.9716 67.6033 21.6861 68.0977 21.3111C68.592 20.9276 69.0011 20.4631 69.3249 19.9176C69.6573 19.3722 69.8874 18.75 70.0153 18.0511L75.6147 18.0767C75.4698 19.2784 75.1076 20.4375 74.5281 21.554C73.957 22.6619 73.1857 23.6548 72.2141 24.5327C71.2511 25.402 70.1005 26.0923 68.7624 26.6037C67.4329 27.1065 65.9286 27.358 64.2496 27.358C61.9144 27.358 59.8263 26.8295 57.9854 25.7727C56.1531 24.7159 54.7042 23.1861 53.6388 21.1832C52.582 19.1804 52.0536 16.7557 52.0536 13.9091C52.0536 11.054 52.5906 8.625 53.6644 6.62216C54.7383 4.61932 56.1957 3.09375 58.0366 2.04545C59.8775 0.988636 61.9485 0.460226 64.2496 0.460226C65.7667 0.460226 67.1729 0.673295 68.4684 1.09943C69.7724 1.52557 70.9272 2.14773 71.9329 2.96591C72.9386 3.77557 73.7567 4.76846 74.3874 5.9446C75.0266 7.12074 75.4357 8.46733 75.6147 9.98438ZM87.9162 27V0.818181H105.558V5.3821H93.4517V11.6207H104.651V16.1847H93.4517V22.4361H105.609V27H87.9162ZM122.091 11.7486V16.0696H110.151V11.7486H122.091ZM149.935 9.98438H144.336C144.233 9.25994 144.025 8.61648 143.709 8.05398C143.394 7.48295 142.989 6.99716 142.495 6.59659C142 6.19602 141.429 5.8892 140.782 5.67614C140.142 5.46307 139.448 5.35653 138.698 5.35653C137.343 5.35653 136.162 5.69318 135.157 6.36648C134.151 7.03125 133.371 8.00284 132.817 9.28125C132.263 10.5511 131.986 12.0937 131.986 13.9091C131.986 15.7756 132.263 17.3437 132.817 18.6136C133.38 19.8835 134.164 20.8423 135.169 21.4901C136.175 22.1378 137.338 22.4616 138.659 22.4616C139.401 22.4616 140.087 22.3636 140.718 22.1676C141.357 21.9716 141.924 21.6861 142.418 21.3111C142.912 20.9276 143.321 20.4631 143.645 19.9176C143.978 19.3722 144.208 18.75 144.336 18.0511L149.935 18.0767C149.79 19.2784 149.428 20.4375 148.848 21.554C148.277 22.6619 147.506 23.6548 146.534 24.5327C145.571 25.402 144.421 26.0923 143.083 26.6037C141.753 27.1065 140.249 27.358 138.57 27.358C136.235 27.358 134.147 26.8295 132.306 25.7727C130.473 24.7159 129.025 23.1861 127.959 21.1832C126.902 19.1804 126.374 16.7557 126.374 13.9091C126.374 11.054 126.911 8.625 127.985 6.62216C129.059 4.61932 130.516 3.09375 132.357 2.04545C134.198 0.988636 136.269 0.460226 138.57 0.460226C140.087 0.460226 141.493 0.673295 142.789 1.09943C144.093 1.52557 145.248 2.14773 146.253 2.96591C147.259 3.77557 148.077 4.76846 148.708 5.9446C149.347 7.12074 149.756 8.46733 149.935 9.98438ZM153.904 27V0.818181H159.44V22.4361H170.664V27H153.904ZM179.866 0.818181V27H174.33V0.818181H179.866ZM206.319 0.818181V27H201.538L190.147 10.5213H189.956V27H184.42V0.818181H189.278L200.579 17.2841H200.809V0.818181H206.319ZM216.428 0.818181V27H210.893V0.818181H216.428ZM244.083 9.98438H238.484C238.382 9.25994 238.173 8.61648 237.858 8.05398C237.542 7.48295 237.137 6.99716 236.643 6.59659C236.149 6.19602 235.578 5.8892 234.93 5.67614C234.291 5.46307 233.596 5.35653 232.846 5.35653C231.491 5.35653 230.311 5.69318 229.305 6.36648C228.299 7.03125 227.52 8.00284 226.966 9.28125C226.412 10.5511 226.135 12.0937 226.135 13.9091C226.135 15.7756 226.412 17.3437 226.966 18.6136C227.528 19.8835 228.312 20.8423 229.318 21.4901C230.324 22.1378 231.487 22.4616 232.808 22.4616C233.549 22.4616 234.235 22.3636 234.866 22.1676C235.505 21.9716 236.072 21.6861 236.566 21.3111C237.061 20.9276 237.47 20.4631 237.794 19.9176C238.126 19.3722 238.356 18.75 238.484 18.0511L244.083 18.0767C243.939 19.2784 243.576 20.4375 242.997 21.554C242.426 22.6619 241.654 23.6548 240.683 24.5327C239.72 25.402 238.569 26.0923 237.231 26.6037C235.902 27.1065 234.397 27.358 232.718 27.358C230.383 27.358 228.295 26.8295 226.454 25.7727C224.622 24.7159 223.173 23.1861 222.108 21.1832C221.051 19.1804 220.522 16.7557 220.522 13.9091C220.522 11.054 221.059 8.625 222.133 6.62216C223.207 4.61932 224.664 3.09375 226.505 2.04545C228.346 0.988636 230.417 0.460226 232.718 0.460226C234.235 0.460226 235.642 0.673295 236.937 1.09943C238.241 1.52557 239.396 2.14773 240.402 2.96591C241.407 3.77557 242.225 4.76846 242.856 5.9446C243.495 7.12074 243.904 8.46733 244.083 9.98438Z" fill="white"/>
<path d="M2.06818 120V50.1818H29.6136C34.9091 50.1818 39.4205 51.1932 43.1477 53.2159C46.875 55.2159 49.7159 58 51.6705 61.5682C53.6477 65.1136 54.6364 69.2045 54.6364 73.8409C54.6364 78.4773 53.6364 82.5682 51.6364 86.1136C49.6364 89.6591 46.7386 92.4205 42.9432 94.3977C39.1705 96.375 34.6023 97.3636 29.2386 97.3636H11.6818V85.5341H26.8523C29.6932 85.5341 32.0341 85.0455 33.875 84.0682C35.7386 83.0682 37.125 81.6932 38.0341 79.9432C38.9659 78.1705 39.4318 76.1364 39.4318 73.8409C39.4318 71.5227 38.9659 69.5 38.0341 67.7727C37.125 66.0227 35.7386 64.6705 33.875 63.7159C32.0114 62.7386 29.6477 62.25 26.7841 62.25H16.8295V120H2.06818ZM64.2244 120V50.1818H91.7699C97.0426 50.1818 101.543 51.125 105.27 53.0114C109.02 54.875 111.872 57.5227 113.827 60.9545C115.804 64.3636 116.793 68.375 116.793 72.9886C116.793 77.625 115.793 81.6136 113.793 84.9545C111.793 88.2727 108.895 90.8182 105.099 92.5909C101.327 94.3636 96.7585 95.25 91.3949 95.25H72.9517V83.3864H89.0085C91.8267 83.3864 94.1676 83 96.0312 82.2273C97.8949 81.4545 99.2813 80.2955 100.19 78.75C101.122 77.2045 101.588 75.2841 101.588 72.9886C101.588 70.6705 101.122 68.7159 100.19 67.125C99.2813 65.5341 97.8835 64.3295 95.9972 63.5114C94.1335 62.6705 91.7813 62.25 88.9403 62.25H78.9858V120H64.2244ZM101.929 88.2273L119.281 120H102.986L86.0085 88.2273H101.929ZM141.986 50.1818V120H127.224V50.1818H141.986ZM154.131 50.1818H172.335L191.562 97.0909H192.381L211.608 50.1818H229.812V120H215.494V74.5568H214.915L196.847 119.659H187.097L169.028 74.3864H168.449V120H154.131V50.1818ZM279.849 70.2614C279.577 67.5114 278.406 65.375 276.338 63.8523C274.27 62.3295 271.463 61.5682 267.918 61.5682C265.509 61.5682 263.474 61.9091 261.815 62.5909C260.156 63.25 258.884 64.1705 257.997 65.3523C257.134 66.5341 256.702 67.875 256.702 69.375C256.656 70.625 256.918 71.7159 257.486 72.6477C258.077 73.5795 258.884 74.3864 259.906 75.0682C260.929 75.7273 262.111 76.3068 263.452 76.8068C264.793 77.2841 266.224 77.6932 267.747 78.0341L274.02 79.5341C277.065 80.2159 279.861 81.125 282.406 82.2614C284.952 83.3977 287.156 84.7955 289.02 86.4545C290.884 88.1136 292.327 90.0682 293.349 92.3182C294.395 94.5682 294.929 97.1477 294.952 100.057C294.929 104.33 293.838 108.034 291.679 111.17C289.543 114.284 286.452 116.705 282.406 118.432C278.384 120.136 273.531 120.989 267.849 120.989C262.213 120.989 257.304 120.125 253.122 118.398C248.963 116.67 245.713 114.114 243.372 110.727C241.054 107.318 239.838 103.102 239.724 98.0795H254.009C254.168 100.42 254.838 102.375 256.02 103.943C257.224 105.489 258.827 106.659 260.827 107.455C262.849 108.227 265.134 108.614 267.679 108.614C270.179 108.614 272.349 108.25 274.19 107.523C276.054 106.795 277.497 105.784 278.52 104.489C279.543 103.193 280.054 101.705 280.054 100.023C280.054 98.4545 279.588 97.1364 278.656 96.0682C277.747 95 276.406 94.0909 274.634 93.3409C272.884 92.5909 270.736 91.9091 268.19 91.2955L260.588 89.3864C254.702 87.9545 250.054 85.7159 246.645 82.6705C243.236 79.625 241.543 75.5227 241.565 70.3636C241.543 66.1364 242.668 62.4432 244.94 59.2841C247.236 56.125 250.384 53.6591 254.384 51.8864C258.384 50.1136 262.929 49.2273 268.02 49.2273C273.202 49.2273 277.724 50.1136 281.588 51.8864C285.474 53.6591 288.497 56.125 290.656 59.2841C292.815 62.4432 293.929 66.1023 293.997 70.2614H279.849Z" fill="#F4BF4F"/>
</svg>
