<svg width="280" height="280" viewBox="0 0 280 280" fill="none" xmlns="http://www.w3.org/2000/svg">
<g style="mix-blend-mode:soft-light">
<path fill-rule="evenodd" clip-rule="evenodd" d="M26.25 140C26.25 77.1988 77.1988 26.25 140 26.25C202.801 26.25 253.75 77.1988 253.75 140C253.75 202.801 202.801 253.75 140 253.75C77.1988 253.75 26.25 202.801 26.25 140ZM140 43.75C86.8637 43.75 43.75 86.8637 43.75 140C43.75 193.136 86.8637 236.25 140 236.25C193.136 236.25 236.25 193.136 236.25 140C236.25 86.8637 193.136 43.75 140 43.75Z" fill="black"/>
<path fill-rule="evenodd" clip-rule="evenodd" d="M140 61.25C144.832 61.25 148.75 65.1675 148.75 70V140H192.5C197.332 140 201.25 143.918 201.25 148.75C201.25 153.582 197.332 157.5 192.5 157.5H140C135.168 157.5 131.25 153.582 131.25 148.75V70C131.25 65.1675 135.168 61.25 140 61.25Z" fill="black"/>
</g>
</svg>
